# xmcd
# 
# Track frame offsets:
#     150
#     16770
#     34926
#     55709
#     72538
#     92326
#     113827
#     137040
#     163700
#     186275
# 
# Disc length: 2827
# 
# Revision: 0
# Processed by: cddbd v1.5.2PL0 Copyright (c) Steve Scherf et al.
# Submitted via: fre:ac v1.0.31
# 
DISCID=800b090a
DTITLE=藤川千愛 - ライカ
DYEAR=2019
DGENRE=JPop
TTITLE0=ライカ
TTITLE1=夜もすがら君を想う
TTITLE2=夢なんかじゃ飯は喰えないと誰かのせいにして
TTITLE3=ゴミの日
TTITLE4=葛藤
TTITLE5=勝手にひとりでドキドキすんなよ
TTITLE6=hane
TTITLE7=あたしが隣にいるうちに
TTITLE8=きみの名前
TTITLE9=あの日あの時
EXTD=
EXTT0=
EXTT1=
EXTT2=
EXTT3=
EXTT4=
EXTT5=
EXTT6=
EXTT7=
EXTT8=
EXTT9=
PLAYORDER=
